<?xml version="1.0" encoding="UTF-8"?>
<svg xmlns="http://www.w3.org/2000/svg" xmlns:xlink="http://www.w3.org/1999/xlink" width="160pt" height="160pt" viewBox="0 0 160 160" version="1.1">
<g id="surface7897908">
<path style=" stroke:none;fill-rule:nonzero;fill:rgb(100%,100%,100%);fill-opacity:1;" d="M 77.453125 18 C 67.773438 18 59.070312 23.296875 52.757812 28.445312 C 46.445312 33.601562 42.421875 38.773438 42.421875 38.773438 L 40.617188 41.085938 L 43.4375 41.914062 C 43.4375 41.914062 44.53125 42.21875 45.84375 43.5625 C 47.148438 44.898438 48.546875 47.179688 48.546875 51.5 C 48.546875 57.101562 49.40625 61.625 49.835938 63.539062 C 48.71875 64.554688 48 65.992188 48 67.601562 C 48 68.898438 48.390625 70.007812 48.710938 71.09375 C 48.867188 71.640625 49.023438 72.148438 49.125 72.53125 C 49.226562 72.914062 49.25 73.289062 49.25 73 C 49.25 75.78125 51.609375 78 54.375 78 L 54.492188 78 C 55.375 84.882812 58.875 90.929688 64 95.03125 L 64 101.085938 L 57.914062 106.34375 C 53.390625 108.320312 46.257812 111.5 40.0625 115.414062 C 36.90625 117.40625 34 119.570312 31.796875 121.945312 C 29.59375 124.320312 28 127 28 130 L 28 142 L 99.273438 142 C 104.476562 152.640625 115.375 160 128 160 C 145.648438 160 160 145.648438 160 128 C 160 110.351562 145.648438 96 128 96 C 118.335938 96 109.6875 100.320312 103.8125 107.109375 C 103.226562 106.851562 102.617188 106.578125 102.085938 106.34375 L 96 101.085938 L 96 95.039062 C 101.125 90.929688 104.617188 84.882812 105.507812 78 L 105.625 78 C 108.390625 78 110.75 75.78125 110.75 73 C 110.75 73.289062 110.773438 72.914062 110.875 72.53125 C 110.976562 72.148438 111.132812 71.640625 111.289062 71.09375 C 111.609375 70.007812 112 68.898438 112 67.601562 C 112 65.960938 111.257812 64.515625 110.117188 63.492188 C 110.484375 61.382812 112 52.351562 112 46 C 112 38.8125 109.3125 33.664062 105.6875 30.46875 C 102.429688 27.609375 98.601562 26.460938 95.210938 26.21875 C 94.664062 25.351562 93.695312 23.992188 91.6875 22.421875 C 88.804688 20.179688 84.179688 18 77.453125 18 Z M 77.453125 22 C 83.328125 22 86.976562 23.820312 89.21875 25.578125 C 91.46875 27.335938 92.210938 28.882812 92.210938 28.882812 L 92.757812 30 L 94 30 C 96.664062 30 100.25 31.015625 103.039062 33.476562 C 105.835938 35.9375 108 39.78125 108 46 C 108 51.578125 106.671875 59.71875 106.28125 62 C 106.273438 62 106.265625 62 106.25 62 C 106.078125 62 106.109375 62.039062 106 62.054688 L 106 56 C 106 49.15625 103.203125 44.554688 100.390625 41.828125 C 97.578125 39.101562 94.632812 38.101562 94.632812 38.101562 L 93.492188 37.71875 L 92.617188 38.554688 C 92.617188 38.554688 91.359375 39.789062 88.320312 41.179688 C 85.28125 42.570312 80.578125 44 74 44 C 70.398438 44 65.65625 45.273438 61.539062 48.148438 C 57.4375 51.015625 54.023438 55.703125 54.007812 62.0625 C 53.898438 62.046875 53.921875 62 53.75 62 C 53.703125 62 53.65625 62.015625 53.609375 62.015625 C 53.203125 60.085938 52.546875 56.320312 52.546875 51.5 C 52.546875 46.265625 50.671875 42.789062 48.710938 40.773438 C 47.875 39.914062 47.6875 40.0625 46.960938 39.632812 C 48.34375 38.007812 50.914062 35.125 55.289062 31.554688 C 61.234375 26.703125 69.265625 22 77.453125 22 Z M 94 42.3125 C 94.484375 42.5 95.75 42.898438 97.609375 44.695312 C 99.796875 46.820312 102 50.210938 102 56 L 102 68.609375 L 105.007812 66.84375 C 105.523438 66.546875 106 66.28125 106.335938 66.109375 C 106.375 66.085938 106.390625 66.085938 106.429688 66.0625 C 107.34375 66.15625 108 66.796875 108 67.59375 L 108 67.601562 C 108 67.75 107.757812 68.921875 107.453125 69.96875 C 107.296875 70.484375 107.140625 71.007812 107.007812 71.484375 C 106.882812 71.960938 106.75 72.296875 106.75 73 C 106.75 73.53125 106.3125 74 105.625 74 L 102.039062 74 L 101.945312 75.898438 C 101.40625 86.203125 93.804688 94.601562 83.882812 96.375 L 83.3125 96.46875 L 82.882812 96.867188 C 82.101562 97.578125 81.117188 98 80 98 C 78.882812 98 77.898438 97.570312 77.109375 96.859375 L 76.6875 96.46875 L 76.117188 96.375 C 66.195312 94.601562 58.59375 86.203125 58.054688 75.898438 L 57.953125 74 L 54.375 74 C 53.6875 74 53.25 73.53125 53.25 73 C 53.25 72.296875 53.117188 71.960938 52.984375 71.484375 C 52.851562 71.007812 52.695312 70.484375 52.539062 69.96875 C 52.234375 68.921875 52 67.75 52 67.601562 C 52 66.796875 52.65625 66.15625 53.570312 66.0625 C 53.609375 66.085938 53.625 66.085938 53.664062 66.109375 C 54 66.28125 54.476562 66.546875 54.992188 66.84375 L 58 68.609375 L 58 62.101562 C 58 57.117188 60.484375 53.765625 63.828125 51.429688 C 67.171875 49.09375 71.421875 48 74 48 C 81.164062 48 86.460938 46.429688 89.984375 44.820312 C 92.601562 43.625 93.289062 42.890625 94 42.3125 Z M 69 66 C 67.34375 66 66 67.34375 66 69 C 66 70.65625 67.34375 72 69 72 C 70.65625 72 72 70.65625 72 69 C 72 67.34375 70.65625 66 69 66 Z M 91 66 C 89.34375 66 88 67.34375 88 69 C 88 70.65625 89.34375 72 91 72 C 92.65625 72 94 70.65625 94 69 C 94 67.34375 92.65625 66 91 66 Z M 68 97.65625 C 70.140625 98.789062 72.453125 99.640625 74.90625 100.132812 C 76.3125 101.242188 78.054688 102 80 102 C 81.945312 102 83.671875 101.242188 85.078125 100.132812 C 87.539062 99.648438 89.859375 98.789062 92 97.65625 L 92 102.820312 C 91.226562 103.875 90.148438 105.25 88.851562 106.632812 C 86.1875 109.46875 82.679688 112 80 112 C 77.320312 112 73.8125 109.46875 71.148438 106.632812 C 69.851562 105.25 68.773438 103.875 68 102.820312 Z M 128 100 C 143.484375 100 156 112.515625 156 128 C 156 143.484375 143.484375 156 128 156 C 112.515625 156 100 143.484375 100 128 C 100 112.515625 112.515625 100 128 100 Z M 65.007812 105.5 C 65.84375 106.617188 66.914062 107.96875 68.226562 109.367188 C 69.734375 110.976562 71.523438 112.640625 73.539062 113.90625 L 66.023438 118.914062 L 62.109375 108.007812 Z M 94.992188 105.5 L 99.921875 109.765625 L 100.203125 109.882812 C 100.539062 110.03125 100.953125 110.21875 101.3125 110.375 C 99.320312 113.398438 97.835938 116.78125 96.945312 120.398438 L 86.960938 113.59375 C 88.773438 112.375 90.390625 110.84375 91.773438 109.367188 C 93.085938 107.96875 94.15625 106.617188 94.992188 105.5 Z M 58.710938 110.375 L 63.976562 125.085938 L 76.023438 117.054688 L 77.484375 120.710938 L 76.15625 138 L 32 138 L 32 130 C 32 128.476562 32.90625 126.632812 34.734375 124.664062 C 36.5625 122.695312 39.21875 120.671875 42.1875 118.796875 C 47.710938 115.3125 54.203125 112.351562 58.710938 110.375 Z M 126 114 L 126 126 L 114 126 L 114 130 L 126 130 L 126 142 L 130 142 L 130 130 L 142 130 L 142 126 L 130 126 L 130 114 Z M 84.1875 116.539062 L 96.164062 124.703125 C 96.054688 125.789062 96 126.890625 96 128 C 96 131.492188 96.578125 134.851562 97.625 138 L 83.84375 138 L 82.515625 120.710938 Z M 84.1875 116.539062 "/>
</g>
</svg>
