<?xml version="1.0" encoding="UTF-8"?>
<svg xmlns="http://www.w3.org/2000/svg" xmlns:xlink="http://www.w3.org/1999/xlink" width="240pt" height="240pt" viewBox="0 0 240 240" version="1.1">
<g id="surface7899930">
<path style=" stroke:none;fill-rule:nonzero;fill:rgb(100%,100%,100%);fill-opacity:1;" d="M 116.179688 27 C 101.660156 27 88.605469 34.945312 79.136719 42.667969 C 69.667969 50.402344 63.632812 58.160156 63.632812 58.160156 L 60.925781 61.628906 L 65.15625 62.871094 C 65.15625 62.871094 66.796875 63.328125 68.765625 65.34375 C 70.722656 67.347656 72.820312 70.769531 72.820312 77.25 C 72.820312 85.652344 74.109375 92.4375 74.753906 95.308594 C 73.078125 96.832031 72 98.988281 72 101.402344 C 72 103.347656 72.585938 105.011719 73.066406 106.640625 C 73.300781 107.460938 73.535156 108.222656 73.6875 108.796875 C 73.839844 109.371094 73.875 109.933594 73.875 109.5 C 73.875 113.671875 77.414062 117 81.5625 117 L 81.738281 117 C 83.0625 127.324219 88.3125 136.394531 96 142.546875 L 96 151.628906 L 86.871094 159.515625 C 80.085938 162.480469 69.386719 167.25 60.09375 173.121094 C 55.359375 176.109375 51 179.355469 47.695312 182.917969 C 44.390625 186.480469 42 190.5 42 195 L 42 213 L 148.910156 213 C 156.714844 228.960938 173.0625 240 192 240 C 218.472656 240 240 218.472656 240 192 C 240 165.527344 218.472656 144 192 144 C 177.503906 144 164.53125 150.480469 155.71875 160.664062 C 154.839844 160.277344 153.925781 159.867188 153.128906 159.515625 L 144 151.628906 L 144 142.558594 C 151.6875 136.394531 156.925781 127.324219 158.261719 117 L 158.4375 117 C 162.585938 117 166.125 113.671875 166.125 109.5 C 166.125 109.933594 166.160156 109.371094 166.3125 108.796875 C 166.464844 108.222656 166.699219 107.460938 166.933594 106.640625 C 167.414062 105.011719 168 103.347656 168 101.402344 C 168 98.941406 166.886719 96.773438 165.175781 95.238281 C 165.726562 92.074219 168 78.527344 168 69 C 168 58.21875 163.96875 50.496094 158.53125 45.703125 C 153.644531 41.414062 147.902344 39.691406 142.816406 39.328125 C 141.996094 38.027344 140.542969 35.988281 137.53125 33.632812 C 133.207031 30.269531 126.269531 27 116.179688 27 Z M 116.179688 33 C 124.992188 33 130.464844 35.730469 133.828125 38.367188 C 137.203125 41.003906 138.316406 43.324219 138.316406 43.324219 L 139.136719 45 L 141 45 C 144.996094 45 150.375 46.523438 154.558594 50.214844 C 158.753906 53.90625 162 59.671875 162 69 C 162 77.367188 160.007812 89.578125 159.421875 93 C 159.410156 93 159.398438 93 159.375 93 C 159.117188 93 159.164062 93.058594 159 93.082031 L 159 84 C 159 73.734375 154.804688 66.832031 150.585938 62.742188 C 146.367188 58.652344 141.949219 57.152344 141.949219 57.152344 L 140.238281 56.578125 L 138.925781 57.832031 C 138.925781 57.832031 137.039062 59.683594 132.480469 61.769531 C 127.921875 63.855469 120.867188 66 111 66 C 105.597656 66 98.484375 67.910156 92.308594 72.222656 C 86.15625 76.523438 81.035156 83.554688 81.011719 93.09375 C 80.847656 93.070312 80.882812 93 80.625 93 C 80.554688 93 80.484375 93.023438 80.414062 93.023438 C 79.804688 90.128906 78.820312 84.480469 78.820312 77.25 C 78.820312 69.398438 76.007812 64.183594 73.066406 61.160156 C 71.8125 59.871094 71.53125 60.09375 70.441406 59.449219 C 72.515625 57.011719 76.371094 52.6875 82.933594 47.332031 C 91.851562 40.054688 103.898438 33 116.179688 33 Z M 141 63.46875 C 141.726562 63.75 143.625 64.347656 146.414062 67.042969 C 149.695312 70.230469 153 75.316406 153 84 L 153 102.914062 L 157.511719 100.265625 C 158.285156 99.820312 159 99.421875 159.503906 99.164062 C 159.5625 99.128906 159.585938 99.128906 159.644531 99.09375 C 161.015625 99.234375 162 100.195312 162 101.390625 L 162 101.402344 C 162 101.625 161.636719 103.382812 161.179688 104.953125 C 160.945312 105.726562 160.710938 106.511719 160.511719 107.226562 C 160.324219 107.941406 160.125 108.445312 160.125 109.5 C 160.125 110.296875 159.46875 111 158.4375 111 L 153.058594 111 L 152.917969 113.847656 C 152.109375 129.304688 140.707031 141.902344 125.824219 144.5625 L 124.96875 144.703125 L 124.324219 145.300781 C 123.152344 146.367188 121.675781 147 120 147 C 118.324219 147 116.847656 146.355469 115.664062 145.289062 L 115.03125 144.703125 L 114.175781 144.5625 C 99.292969 141.902344 87.890625 129.304688 87.082031 113.847656 L 86.929688 111 L 81.5625 111 C 80.53125 111 79.875 110.296875 79.875 109.5 C 79.875 108.445312 79.675781 107.941406 79.476562 107.226562 C 79.277344 106.511719 79.042969 105.726562 78.808594 104.953125 C 78.351562 103.382812 78 101.625 78 101.402344 C 78 100.195312 78.984375 99.234375 80.355469 99.09375 C 80.414062 99.128906 80.4375 99.128906 80.496094 99.164062 C 81 99.421875 81.714844 99.820312 82.488281 100.265625 L 87 102.914062 L 87 93.152344 C 87 85.675781 90.726562 80.648438 95.742188 77.144531 C 100.757812 73.640625 107.132812 72 111 72 C 121.746094 72 129.691406 69.644531 134.976562 67.230469 C 138.902344 65.4375 139.933594 64.335938 141 63.46875 Z M 103.5 99 C 101.015625 99 99 101.015625 99 103.5 C 99 105.984375 101.015625 108 103.5 108 C 105.984375 108 108 105.984375 108 103.5 C 108 101.015625 105.984375 99 103.5 99 Z M 136.5 99 C 134.015625 99 132 101.015625 132 103.5 C 132 105.984375 134.015625 108 136.5 108 C 138.984375 108 141 105.984375 141 103.5 C 141 101.015625 138.984375 99 136.5 99 Z M 102 146.484375 C 105.210938 148.183594 108.679688 149.460938 112.359375 150.199219 C 114.46875 151.863281 117.082031 153 120 153 C 122.917969 153 125.507812 151.863281 127.617188 150.199219 C 131.308594 149.472656 134.789062 148.183594 138 146.484375 L 138 154.230469 C 136.839844 155.8125 135.222656 157.875 133.277344 159.949219 C 129.28125 164.203125 124.019531 168 120 168 C 115.980469 168 110.71875 164.203125 106.722656 159.949219 C 104.777344 157.875 103.160156 155.8125 102 154.230469 Z M 192 150 C 215.226562 150 234 168.773438 234 192 C 234 215.226562 215.226562 234 192 234 C 168.773438 234 150 215.226562 150 192 C 150 168.773438 168.773438 150 192 150 Z M 97.511719 158.25 C 98.765625 159.925781 100.371094 161.953125 102.339844 164.050781 C 104.601562 166.464844 107.285156 168.960938 110.308594 170.859375 L 99.035156 178.371094 L 93.164062 162.011719 Z M 142.488281 158.25 L 149.882812 164.648438 L 150.304688 164.824219 C 150.808594 165.046875 151.429688 165.328125 151.96875 165.5625 C 148.980469 170.097656 146.753906 175.171875 145.417969 180.597656 L 130.441406 170.390625 C 133.160156 168.5625 135.585938 166.265625 137.660156 164.050781 C 139.628906 161.953125 141.234375 159.925781 142.488281 158.25 Z M 88.066406 165.5625 L 95.964844 187.628906 L 114.035156 175.582031 L 116.226562 181.066406 L 114.234375 207 L 48 207 L 48 195 C 48 192.714844 49.359375 189.949219 52.101562 186.996094 C 54.84375 184.042969 58.828125 181.007812 63.28125 178.195312 C 71.566406 172.96875 81.304688 168.527344 88.066406 165.5625 Z M 189 171 L 189 189 L 171 189 L 171 195 L 189 195 L 189 213 L 195 213 L 195 195 L 213 195 L 213 189 L 195 189 L 195 171 Z M 126.28125 174.808594 L 144.246094 187.054688 C 144.082031 188.683594 144 190.335938 144 192 C 144 197.238281 144.867188 202.277344 146.4375 207 L 125.765625 207 L 123.773438 181.066406 Z M 126.28125 174.808594 "/>
</g>
</svg>
