<?xml version="1.0" encoding="UTF-8"?>
<svg xmlns="http://www.w3.org/2000/svg" xmlns:xlink="http://www.w3.org/1999/xlink" width="48pt" height="48pt" viewBox="0 0 48 48" version="1.1">
<g id="surface6951962">
<path style=" stroke:none;fill-rule:nonzero;fill:rgb(80%,80%,80%);fill-opacity:1;" d="M 0 24 C 0 10.746094 10.746094 0 24 0 C 37.253906 0 48 10.746094 48 24 C 48 37.253906 37.253906 48 24 48 C 10.746094 48 0 37.253906 0 24 Z M 24 45.121094 C 35.664062 45.121094 45.121094 35.664062 45.121094 24 C 45.121094 12.335938 35.664062 2.878906 24 2.878906 C 12.335938 2.878906 2.878906 12.335938 2.878906 24 C 2.878906 35.664062 12.335938 45.121094 24 45.121094 Z M 24 45.121094 "/>
<path style=" stroke:none;fill-rule:nonzero;fill:rgb(0%,0%,0%);fill-opacity:1;" d="M 29.042969 12.839844 L 15.71875 26.160156 L 12.863281 35.136719 L 21.839844 32.28125 L 35.160156 18.957031 C 35.160156 18.957031 35.058594 16.816406 33.121094 14.878906 C 31.183594 12.941406 29.042969 12.839844 29.042969 12.839844 Z M 29.425781 14.496094 C 30.519531 14.703125 31.386719 15.167969 32.058594 15.855469 C 32.730469 16.546875 33.203125 17.460938 33.503906 18.574219 L 31.65625 20.425781 L 27.574219 16.34375 L 29.042969 14.878906 Z M 16.84375 27.183594 C 16.855469 27.1875 18.070312 27.492188 19.289062 28.710938 C 20.613281 29.9375 20.816406 31.058594 20.816406 31.058594 L 20.863281 31.109375 L 17.242188 32.277344 L 15.714844 30.75 Z M 16.84375 27.183594 "/>
</g>
</svg>
