<svg xmlns="http://www.w3.org/2000/svg" viewBox="0 0 64 64" width="128px" height="128px"><path fill="#c2cde7" d="M52.59,29a20,20,0,0,0-38.76-9.71A16,16,0,0,0,17,51H52a11,11,0,0,0,.59-22Z"/><path fill="#d6dff2" d="M17.79,15.59a2.51,2.51,0,0,0,3.72-.21,15,15,0,0,1,23,0,2.51,2.51,0,0,0,3.72.21h0a2.52,2.52,0,0,0,.12-3.41,20,20,0,0,0-30.68,0,2.52,2.52,0,0,0,.12,3.41Z"/><path fill="#acb7d0" d="M6 46L61 46 55 51 13 51 6 46z"/><path fill="#8d6c9f" d="M10 44a1 1 0 0 0-1 1v2a1 1 0 0 0 2 0V45A1 1 0 0 0 10 44zM15 44a1 1 0 0 0-1 1v2a1 1 0 0 0 2 0V45A1 1 0 0 0 15 44zM19 47a1 1 0 0 0 2 0V45a1 1 0 0 0-2 0zM25 48a1 1 0 0 0 1-1V45a1 1 0 0 0-2 0v2A1 1 0 0 0 25 48zM39 44a1 1 0 0 0-1 1v2a1 1 0 0 0 2 0V45A1 1 0 0 0 39 44zM44 44a1 1 0 0 0-1 1v2a1 1 0 0 0 2 0V45A1 1 0 0 0 44 44zM49 44a1 1 0 0 0-1 1v2a1 1 0 0 0 2 0V45A1 1 0 0 0 49 44zM54 44a1 1 0 0 0-1 1v2a1 1 0 0 0 2 0V45A1 1 0 0 0 54 44zM59 44a1 1 0 0 0-1 1v2a1 1 0 0 0 2 0V45A1 1 0 0 0 59 44z"/><path fill="#8d6c9f" d="M56.32,28.84a1,1,0,0,0-.15-.09,11.9,11.9,0,0,0-2.12-.54l-.29-.06a21.43,21.43,0,0,0,0-6,21,21,0,0,0-40.13-5.35l0,0c-.19.45-.34.91-.5,1.37,0,.09-.07.18-.1.27A17,17,0,0,0,17.45,52h34.2A12.29,12.29,0,0,0,64,40.45,12.06,12.06,0,0,0,56.32,28.84ZM59,47a12.47,12.47,0,0,1-1.16,1,10.49,10.49,0,0,1-6.19,2H17.45a15.75,15.75,0,0,1-8.59-2.53A20.5,20.5,0,0,1,7,46,14.71,14.71,0,0,1,2,35.84,15.1,15.1,0,0,1,12.44,20.72,21.07,21.07,0,0,0,12,25a1,1,0,0,0,2,0,18.94,18.94,0,0,1,.78-5.38h0c.11-.38.24-.74.38-1.1.06-.18.12-.36.19-.53A19,19,0,0,1,33,6a19.58,19.58,0,0,1,2.44.15A19.13,19.13,0,0,1,51.83,22.39,19.4,19.4,0,0,1,51.74,28a12,12,0,0,0-1.83.16,1,1,0,0,0,.34,2A10.08,10.08,0,0,1,52.58,30c.28,0,.55,0,.81.09l.29,0A10,10,0,0,1,62,40.38,9.77,9.77,0,0,1,59,47Z"/><path fill="#8d6c9f" d="M40.52 10.88a1 1 0 0 0-.94 1.77 13.93 13.93 0 0 1 2.22 1.47 1 1 0 1 0 1.26-1.55A16 16 0 0 0 40.52 10.88zM36.38 9.36a16.22 16.22 0 0 0-11 1.57 1 1 0 0 0 1 1.76A14.2 14.2 0 0 1 36 11.31a1 1 0 1 0 .42-2z"/><path fill="#faefde" d="M29 61L29 34 25 38 21 34 32 23 43 34 39 38 35 34 35 61 29 61z"/><path fill="#8d6c9f" d="M31.29,22.29l-11,11a1,1,0,0,0,0,1.41l4,4a1,1,0,0,0,1.41,0L28,36.41V61a1,1,0,0,0,1,1h6a1,1,0,0,0,1-1V36.41l2.29,2.29a1,1,0,0,0,1.41,0l4-4a1,1,0,0,0,0-1.41l-11-11A1,1,0,0,0,31.29,22.29ZM41.59,34,39,36.59l-3.29-3.29A1,1,0,0,0,34,34V60H30V34a1,1,0,0,0-1.71-.71L25,36.59,22.41,34,32,24.41Z"/></svg>